<svg xmlns="http://www.w3.org/2000/svg" xmlns:xlink="http://www.w3.org/1999/xlink" viewBox="0 0 787.1 190.02"><defs><style>.cls-1{fill:none;}.cls-2{clip-path:url(#clip-path);}.cls-3{fill:#9f84bc;}</style><clipPath id="clip-path" transform="translate(-8.51 -4.41)"><rect class="cls-1" width="803.4" height="199.73"/></clipPath></defs><title>资源 1</title><g id="图层_2" data-name="图层 2"><g id="图层_1-2" data-name="图层 1"><g class="cls-2"><path class="cls-3" d="M773.61,194.43H30.52a22,22,0,0,1-22-22V52.13a22.11,22.11,0,0,1,19-21.81L215.36,4.41l193,24.85L595.73,4.41l.68.1L776.72,30.27a22.11,22.11,0,0,1,18.89,21.78V172.42a22,22,0,0,1-22,22M215.4,14.5,28.88,40.23a12.06,12.06,0,0,0-10.37,11.9V172.42a12,12,0,0,0,12,12H773.61a12,12,0,0,0,12-12V52.05A12.06,12.06,0,0,0,775.3,40.17L595.68,14.5,408.41,39.35Z" transform="translate(-8.51 -4.41)"/><path class="cls-3" d="M102.59,72.13H57.53c-3.27,0-5-2.52-5-5.63s1.72-5.63,5-5.63h45.06c3.27,0,5,2.52,5,5.63s-1.72,5.63-5,5.63" transform="translate(-8.51 -4.41)"/><path class="cls-3" d="M111.33,103.35H48.78c-3.27,0-5-2.52-5-5.62s1.72-5.63,5-5.63h62.55c3.27,0,5,2.52,5,5.63s-1.72,5.62-5,5.62" transform="translate(-8.51 -4.41)"/><path class="cls-3" d="M64.08,161.3a9.48,9.48,0,0,1-9.18-11.75L68.08,96.84a5.93,5.93,0,0,1,11.5,2.87L67.11,148.23a1.32,1.32,0,0,0,1.28,1.65H98.1a1.32,1.32,0,0,0,1.29-1.62l-4.62-20.18c-.68-3.2,1.37-5.47,4.57-6.15s6.35.49,7,3.7l5,23.69a9.46,9.46,0,0,1-9.12,11.42l-38,.56Z" transform="translate(-8.51 -4.41)"/><path class="cls-3" d="M184.54,168.09h-12.8c-3.27,0-5-2.65-5-5.92s1.72-5.93,5-5.93h12.8c2.76,0,4.79-2.41,5.18-6.13C192,128,192,108.6,192,88V81.48c0-4.63-2.74-6.92-5.3-6.92H125.54c-3.28,0-5-2.51-5-5.61s1.72-5.6,5-5.6h61.14c9.94,0,17.15,7.62,17.15,18.13V88c0,20.9,0,40.65-2.33,63.35-1,9.85-8,16.74-17,16.74" transform="translate(-8.51 -4.41)"/><path class="cls-3" d="M126.88,169.27a5.93,5.93,0,0,1-4.19-10.12c12.1-12.1,20.41-31.37,26.15-60.63,2.51-12.81,3.63-43.19,3.64-43.5.12-3.27,2.88-5,6.13-4.77s5.83,1.93,5.71,5.2c0,1.28-1.15,31.62-3.85,45.35-6.21,31.68-15.56,52.89-29.4,66.73a5.9,5.9,0,0,1-4.19,1.74" transform="translate(-8.51 -4.41)"/><path class="cls-3" d="M360,167H339.31c-3.27,0-5-2.66-5-5.93s1.72-5.92,5-5.92H360c2.9,0,6-2.31,6.37-7.45.67-9.2,1-44.44,1-72.93,0-4-2.07-7.2-5.35-7.2l-72.7.19h0c-3.27,0-4.93-2.26-4.94-5.53s1.7-5.58,5-5.59l72.73-.18c9.95,0,17.17,7.7,17.17,18.31,0,23.8-.29,63.09-1.07,73.79C377.3,160.66,368.36,167,360,167" transform="translate(-8.51 -4.41)"/><path class="cls-3" d="M346.24,90.68h-55.6c-2.84,0-4.21-2.3-4.21-5.14s1.37-5.13,4.21-5.13h55.6c2.84,0,4.2,2.3,4.2,5.13s-1.36,5.14-4.2,5.14" transform="translate(-8.51 -4.41)"/><path class="cls-3" d="M333.88,144.14H303.64c-9.09,0-15.69-6.81-15.69-16.19v-8.38c0-9.39,6.6-16.2,15.69-16.2h30.24c9.08,0,15.68,6.81,15.68,16.2V128c0,9.38-6.6,16.19-15.68,16.19m-30.24-30c-2.55,0-3.83,2.54-3.83,5.43V128c0,2.88,1.28,5.42,3.83,5.42h30.24c2.54,0,3.83-2.54,3.83-5.42v-8.38c0-2.89-1.29-5.43-3.83-5.43Z" transform="translate(-8.51 -4.41)"/><path class="cls-3" d="M257.85,71.25H238.8c-3.27,0-5-2.65-5-5.93s1.72-5.92,5-5.92h19.05c3.27,0,5,2.65,5,5.92s-1.72,5.93-5,5.93" transform="translate(-8.51 -4.41)"/><path class="cls-3" d="M445,166.8c-.76,0-1.46,0-2.09,0h-1.47a6.13,6.13,0,0,1,0-12.25l1.66,0a52.73,52.73,0,0,0,7.56-.29c4.1-.46,6.16-.69,6.16-18.13V55.49a6.13,6.13,0,0,1,12.25,0v80.62c0,13.31,0,28.4-17,30.3a60.59,60.59,0,0,1-7,.39" transform="translate(-8.51 -4.41)"/><path class="cls-3" d="M489.06,84.49H436.73c-3.28,0-5-2.52-5-5.63s1.72-5.63,5-5.63h52.33c3.27,0,5,2.52,5,5.63s-1.72,5.63-5,5.63" transform="translate(-8.51 -4.41)"/><path class="cls-3" d="M434.67,135.79c-2.8,0-3.86-2-4.4-4.83-.6-3.22.09-6.31,3.31-6.92l56.87-10.66c3.23-.61,4.75,1.52,5.35,4.73s.05,6.32-3.16,6.92l-56.87,10.66a6,6,0,0,1-1.1.1" transform="translate(-8.51 -4.41)"/><path class="cls-3" d="M583.62,70.5H500.73c-3.27,0-5-2.52-5-5.63s1.72-5.63,5-5.63h82.89c3.27,0,5,2.52,5,5.63s-1.72,5.63-5,5.63" transform="translate(-8.51 -4.41)"/><path class="cls-3" d="M519.14,157.84c5-.08,9-.24,13.77-.41,5.4-.19,8.59-1.28,10.08-5.38,2.08-5.67,2.63-14.12,2.76-24.16l-.06-30.56.11-30.56a6.13,6.13,0,1,1,12.25,0v0l-.17,30.52s-.14,21.59-.33,30.53S557,145.09,555.6,152a25,25,0,0,1-4,9.06,17,17,0,0,1-9,6.31,22,22,0,0,1-5,.83l-3.84.14c-5.09.13-9.66.14-14.72,0-2.87,0-4.23-2.45-4.18-5.36s1.4-5.13,4.18-5.19" transform="translate(-8.51 -4.41)"/><path class="cls-3" d="M654.65,98.15c-4.65-.38-5.81-2.16-5.5-5.36l4-39.36c.31-3.19,2.21-4.38,6.15-4s6,1.88,5.65,5.08l-4,39.36c-.29,3-1.65,4.65-6.3,4.27" transform="translate(-8.51 -4.41)"/><path class="cls-3" d="M741.81,103.61c-4.92-.36-6.28-2.21-6.11-5.41l1.16-20.33a4.27,4.27,0,0,0-1.24-3.24,5.22,5.22,0,0,0-3.8-1.57H661.57a5.81,5.81,0,1,1,0-11.61h0l71.27.17a17.35,17.35,0,0,1,12.38,5.2,15.67,15.67,0,0,1,4.47,11.83L748.56,99c-.17,3.1-1.82,5-6.75,4.64" transform="translate(-8.51 -4.41)"/><path class="cls-3" d="M648.75,168.45c-2.67,0-4.09-2.51-4.75-5.25-.78-3.21.17-5.77,3.35-6.55,27.53-6.77,47-34.95,45.35-65.56-.18-3.3,2.32-4.13,5.59-4.31s6.06.35,6.25,3.65c2,36.27-21.4,69.74-54.38,77.85a6.24,6.24,0,0,1-1.41.17" transform="translate(-8.51 -4.41)"/><path class="cls-3" d="M625.37,95.71A122.42,122.42,0,0,0,605,76.82c-2.72-2-3.43-5-.86-8.08s5.78-3.29,8.5-1.28a134.62,134.62,0,0,1,22.45,20.78c2.17,2.54,2.81,5.1-1.3,8s-7.15,1-8.38-.49" transform="translate(-8.51 -4.41)"/><path class="cls-3" d="M601.8,164.63c-1.77-.18-2.94-1.37-4.18-2.77-2.21-2.5-2.31-5.44.33-7.54a242,242,0,0,0,34.26-34.5c2.08-2.63,5.58-2.3,8.34,0s3.7,4.53,1.63,7.15A255.35,255.35,0,0,1,606,163.4a5.73,5.73,0,0,1-4.16,1.23" transform="translate(-8.51 -4.41)"/><path class="cls-3" d="M270.37,152.29l-12.38.32a.88.88,0,0,1-.9-.9c.17-8,.66-15.55,1.12-23.37.62-10.51,1.25-21.37,1.25-34.38a6.31,6.31,0,0,0-2.91-5.32,5.89,5.89,0,0,0-3.41-1.08H233.33a5.89,5.89,0,0,0-5.9,5.78c-.06,3.34,1.67,6.07,5,6.07l14-.1a.53.53,0,0,1,.54.54c-.16,10.09-.84,19.1-1.35,27.75-.59,10-1.14,19.52-1.14,30.39a6.29,6.29,0,0,0,1.45,4,5.9,5.9,0,0,0,4.86,2.54h.13l19.73-.42c3.27-.07,4.94-2.78,4.87-6s-1.91-6-5.12-5.8" transform="translate(-8.51 -4.41)"/><path class="cls-3" d="M748.46,157.48c-9.91-2.08-27.53-15-38.63-28.76-2-2.49-5.18-3.37-7.33.89-.49,1-.8,1.65-1.31,2.61-1.19,2.26-.76,3.79.38,5.15,13,15.6,32.68,29.35,44.49,31.83a5.53,5.53,0,0,0,1.21.13c2.75,0,3.8-1.94,4.39-4.77.66-3.24,0-6.4-3.2-7.08" transform="translate(-8.51 -4.41)"/></g></g></g></svg>